<svg width="30" height="328" viewBox="0 0 30 328" fill="none" xmlns="http://www.w3.org/2000/svg">
<path fill-rule="evenodd" clip-rule="evenodd" d="M4.758 52.758C5.88317 51.6332 7.40901 51.0013 9 51.0013C10.591 51.0013 12.1168 51.6332 13.242 52.758L15 54.5145L16.758 52.758C17.3115 52.1849 17.9735 51.7278 18.7056 51.4134C19.4376 51.0989 20.2249 50.9334 21.0216 50.9265C21.8183 50.9196 22.6083 51.0714 23.3457 51.3731C24.0831 51.6748 24.753 52.1203 25.3164 52.6836C25.8797 53.247 26.3252 53.9169 26.6269 54.6543C26.9286 55.3917 27.0804 56.1817 27.0735 56.9784C27.0666 57.7751 26.9011 58.5624 26.5866 59.2944C26.2721 60.0264 25.8151 60.6885 25.242 61.242L15 71.4855L4.758 61.242C3.63317 60.1168 3.00128 58.591 3.00128 57C3.00128 55.409 3.63317 53.8832 4.758 52.758V52.758Z" stroke="white" stroke-width="2" stroke-linejoin="round"/>
<path d="M5.25 322.75C5.68045 322.268 8.57231 319.997 10.0097 318.877C10.5332 318.47 11.1753 318.25 11.8389 318.25C13.4435 318.25 16.5355 318.25 18.1478 318.25C18.8192 318.25 19.4677 318.479 20.0082 318.877C21.8642 320.244 23.6041 321.263 25.5 322.75M7.5 325H22.5C24.9853 325 27 322.985 27 320.5V305.5C27 303.015 24.9853 301 22.5 301H7.5C5.01472 301 3 303.015 3 305.5V320.5C3 322.985 5.01472 325 7.5 325ZM19.2982 309.59C19.2982 307.301 17.3655 305.43 15 305.43C12.6345 305.43 10.7018 307.301 10.7018 309.59C10.7018 311.879 12.6345 313.75 15 313.75C17.3655 313.75 19.2982 311.879 19.2982 309.59Z" stroke="white" stroke-width="2"/>
<path d="M9.74016 24.6274C9.21577 24.8007 8.93115 25.3663 9.10445 25.8907C9.27776 26.4151 9.84335 26.6997 10.3677 26.5264L10.0539 25.5769L9.74016 24.6274ZM17.3277 26.0577L17.2378 25.0617L17.2378 25.0617L17.3277 26.0577ZM21.692 25.0962L22.1275 25.9963L22.1275 25.9963L21.692 25.0962ZM25.8621 21.3351L25.0877 20.7024L25.0877 20.7024L25.8621 21.3351ZM23.01 18.9817L23.7141 19.6919L23.7141 19.6919L23.01 18.9817ZM21.0894 20.8859L21.7935 21.596L21.7935 21.596L21.0894 20.8859ZM15.873 20.7308C15.3207 20.7308 14.873 21.1785 14.873 21.7308C14.873 22.2831 15.3207 22.7308 15.873 22.7308V21.7308V20.7308ZM25.4187 18.7453L24.8673 19.5795L24.8673 19.5795L25.4187 18.7453ZM11.53 18.1144L11.9742 19.0104L11.9742 19.0104L11.53 18.1144ZM16.7501 17.641L17.0111 16.6757L17.0111 16.6757L16.7501 17.641ZM18.7886 18.1922L18.5276 19.1575L18.5276 19.1575L18.7886 18.1922ZM19.4345 20.6036L18.7304 19.8934L18.7304 19.8934L19.4345 20.6036ZM17.5935 21.0206C17.2013 21.4095 17.1986 22.0426 17.5874 22.4348C17.9763 22.827 18.6094 22.8298 19.0016 22.4409L18.2976 21.7308L17.5935 21.0206ZM10.0539 25.5769L10.3677 26.5264C10.538 26.4701 10.8603 26.4399 11.3927 26.4775C11.9048 26.5137 12.5004 26.6024 13.1733 26.7072C14.4608 26.9077 16.0552 27.1767 17.4177 27.0536L17.3277 26.0577L17.2378 25.0617C16.1756 25.1577 14.8606 24.9459 13.481 24.731C12.8204 24.6282 12.143 24.5256 11.5338 24.4825C10.9449 24.4409 10.2972 24.4433 9.74016 24.6274L10.0539 25.5769ZM17.3277 26.0577L17.4177 27.0536C19.304 26.8833 20.1992 26.9293 22.1275 25.9963L21.692 25.0962L21.2565 24.196C19.7136 24.9425 19.198 24.8847 17.2378 25.0617L17.3277 26.0577ZM21.692 25.0962L22.1275 25.9963C23.8595 25.1584 25.5906 23.2481 26.6366 21.9677L25.8621 21.3351L25.0877 20.7024C24.032 21.9947 22.5461 23.572 21.2565 24.196L21.692 25.0962ZM23.01 18.9817L22.3059 18.2716L20.3854 20.1757L21.0894 20.8859L21.7935 21.596L23.7141 19.6919L23.01 18.9817ZM19.0321 21.7308V20.7308H15.873V21.7308V22.7308H19.0321V21.7308ZM21.0894 20.8859L20.3854 20.1757C20.0279 20.5301 19.5413 20.7308 19.0321 20.7308V21.7308V22.7308C20.0662 22.7308 21.0597 22.3236 21.7935 21.596L21.0894 20.8859ZM25.4187 18.7453L25.9701 17.911C24.8189 17.1501 23.2865 17.2994 22.3059 18.2716L23.01 18.9817L23.7141 19.6919C24.0204 19.3882 24.5043 19.3396 24.8673 19.5795L25.4187 18.7453ZM25.8621 21.3351L26.6366 21.9677C27.7115 20.6519 27.3067 18.7944 25.9701 17.911L25.4187 18.7453L24.8673 19.5795C25.3 19.8655 25.3511 20.38 25.0877 20.7024L25.8621 21.3351ZM4.71984 16.9231V17.9231H8.59919V16.9231V15.9231H4.71984V16.9231ZM9.56903 17.8846H8.56903V26.5385H9.56903H10.569V17.8846H9.56903ZM8.59919 27.5V26.5H4.71984V27.5V28.5H8.59919V27.5ZM3.75 26.5385H4.75V17.8846H3.75H2.75V26.5385H3.75ZM4.71984 27.5V26.5C4.72093 26.5 4.72467 26.5004 4.72905 26.5022C4.73279 26.5038 4.73574 26.5059 4.73812 26.5082C4.7405 26.5106 4.74349 26.5144 4.74601 26.5203C4.74883 26.5269 4.75 26.5338 4.75 26.5385H3.75H2.75C2.75 27.6299 3.64005 28.5 4.71984 28.5V27.5ZM9.56903 26.5385H8.56903C8.56903 26.5338 8.5702 26.5269 8.57302 26.5203C8.57554 26.5144 8.57852 26.5106 8.58091 26.5082C8.58329 26.5059 8.58624 26.5038 8.58998 26.5022C8.59436 26.5004 8.5981 26.5 8.59919 26.5V27.5V28.5C9.67898 28.5 10.569 27.6299 10.569 26.5385H9.56903ZM8.59919 16.9231V17.9231C8.5981 17.9231 8.59436 17.9227 8.58998 17.9208C8.58623 17.9193 8.58329 17.9172 8.58091 17.9148C8.57852 17.9125 8.57554 17.9087 8.57302 17.9027C8.5702 17.8961 8.56903 17.8893 8.56903 17.8846H9.56903H10.569C10.569 16.7932 9.67898 15.9231 8.59919 15.9231V16.9231ZM4.71984 16.9231V15.9231C3.64005 15.9231 2.75 16.7932 2.75 17.8846H3.75H4.75C4.75 17.8893 4.74883 17.8961 4.74601 17.9027C4.74349 17.9087 4.74051 17.9125 4.73812 17.9148C4.73574 17.9172 4.73279 17.9193 4.72905 17.9208C4.72467 17.9227 4.72093 17.9231 4.71984 17.9231V16.9231ZM10.0539 18.8462L10.4981 19.7421L11.9742 19.0104L11.53 18.1144L11.0859 17.2185L9.6098 17.9502L10.0539 18.8462ZM14.5661 17.4038V18.4038H14.9638V17.4038V16.4038H14.5661V17.4038ZM16.7501 17.641L16.4891 18.6063L18.5276 19.1575L18.7886 18.1922L19.0496 17.2269L17.0111 16.6757L16.7501 17.641ZM19.4345 20.6036L18.7304 19.8934L17.5935 21.0206L18.2976 21.7308L19.0016 22.4409L20.1386 21.3137L19.4345 20.6036ZM18.7886 18.1922L18.5276 19.1575C18.8695 19.25 18.9669 19.659 18.7304 19.8934L19.4345 20.6036L20.1386 21.3137C21.4818 19.982 20.863 17.7172 19.0496 17.2269L18.7886 18.1922ZM14.9638 17.4038V18.4038C15.4791 18.4038 15.9921 18.472 16.4891 18.6063L16.7501 17.641L17.0111 16.6757C16.3438 16.4952 15.6553 16.4038 14.9638 16.4038V17.4038ZM11.53 18.1144L11.9742 19.0104C12.7785 18.6116 13.666 18.4038 14.5661 18.4038V17.4038V16.4038C13.3583 16.4038 12.1668 16.6826 11.0859 17.2185L11.53 18.1144ZM22.1769 10.1923H21.1769C21.1769 11.7561 19.8959 13.0385 18.2976 13.0385V14.0385V15.0385C20.9842 15.0385 23.1769 12.8769 23.1769 10.1923H22.1769ZM18.2976 14.0385V13.0385C16.6992 13.0385 15.4182 11.7561 15.4182 10.1923H14.4182H13.4182C13.4182 12.8769 15.6109 15.0385 18.2976 15.0385V14.0385ZM14.4182 10.1923H15.4182C15.4182 8.62851 16.6992 7.34615 18.2976 7.34615V6.34615V5.34615C15.6109 5.34615 13.4182 7.50777 13.4182 10.1923H14.4182ZM18.2976 6.34615V7.34615C19.8959 7.34615 21.1769 8.62851 21.1769 10.1923H22.1769H23.1769C23.1769 7.50777 20.9842 5.34615 18.2976 5.34615V6.34615ZM14.4182 10.1923V9.19231C12.8199 9.19231 11.5389 7.90996 11.5389 6.34615H10.5389H9.53887C9.53887 9.0307 11.7315 11.1923 14.4182 11.1923V10.1923ZM10.5389 6.34615H11.5389C11.5389 4.78235 12.8199 3.5 14.4182 3.5V2.5V1.5C11.7315 1.5 9.53887 3.66161 9.53887 6.34615H10.5389ZM14.4182 2.5V3.5C16.0166 3.5 17.2976 4.78235 17.2976 6.34615H18.2976H19.2976C19.2976 3.66161 17.1049 1.5 14.4182 1.5V2.5Z" fill="white"/>
<path d="M6 113.5L11.25 118M5.25 113.5L20.0392 98.1943C21.6316 96.6019 24.2133 96.6019 25.8057 98.1943C27.3981 99.7867 27.3981 102.368 25.8057 103.961L10.5 118.75L3 121L5.25 113.5Z" stroke="white" stroke-width="2" stroke-linecap="round" stroke-linejoin="round"/>
<path fill-rule="evenodd" clip-rule="evenodd" d="M17.0954 144.395C16.561 142.202 13.439 142.202 12.9046 144.395C12.8248 144.725 12.6683 145.031 12.4479 145.289C12.2274 145.547 11.9492 145.749 11.6359 145.879C11.3226 146.009 10.9831 146.063 10.6449 146.037C10.3067 146.01 9.9795 145.905 9.68983 145.728C7.7604 144.553 5.55252 146.761 6.72818 148.69C7.48758 149.936 6.81396 151.562 5.39642 151.906C3.20119 152.439 3.20119 155.563 5.39642 156.094C5.72616 156.174 6.03238 156.331 6.29013 156.551C6.54789 156.772 6.74989 157.05 6.87969 157.364C7.00949 157.677 7.06343 158.017 7.0371 158.355C7.01077 158.693 6.90492 159.021 6.72818 159.31C5.55252 161.24 7.7604 163.448 9.68983 162.272C9.97945 162.095 10.3067 161.989 10.645 161.963C10.9832 161.937 11.3229 161.991 11.6364 162.12C11.9499 162.25 12.2283 162.452 12.4489 162.71C12.6695 162.968 12.8261 163.274 12.906 163.604C13.439 165.799 16.5624 165.799 17.094 163.604C17.1741 163.274 17.3309 162.968 17.5516 162.71C17.7723 162.453 18.0506 162.251 18.364 162.121C18.6774 161.991 19.0169 161.938 19.3551 161.964C19.6933 161.99 20.0205 162.095 20.3102 162.272C22.2396 163.448 24.4475 161.24 23.2718 159.31C23.0954 159.021 22.9898 158.693 22.9636 158.355C22.9375 158.017 22.9914 157.677 23.1212 157.364C23.251 157.051 23.4528 156.772 23.7104 156.552C23.968 156.331 24.274 156.174 24.6036 156.094C26.7988 155.561 26.7988 152.438 24.6036 151.906C24.2738 151.826 23.9676 151.67 23.7099 151.449C23.4521 151.228 23.2501 150.95 23.1203 150.637C22.9905 150.323 22.9366 149.983 22.9629 149.645C22.9892 149.307 23.0951 148.98 23.2718 148.69C24.4475 146.761 22.2396 144.553 20.3102 145.728C20.0206 145.905 19.6933 146.011 19.355 146.037C19.0168 146.064 18.6771 146.01 18.3636 145.88C18.0501 145.75 17.7717 145.548 17.5511 145.29C17.3305 145.033 17.1739 144.726 17.094 144.397L17.0954 144.395Z" stroke="white" stroke-width="2"/>
<path d="M17.5 154C17.5 155.381 16.3807 156.5 15 156.5C13.6193 156.5 12.5 155.381 12.5 154C12.5 152.619 13.6193 151.5 15 151.5C16.3807 151.5 17.5 152.619 17.5 154Z" stroke="white" stroke-width="2"/>
</svg>
